<svg width="198" height="191" viewBox="0 0 198 191" fill="none" xmlns="http://www.w3.org/2000/svg">
<path d="M24.6 153C23.2667 153 22.0667 152.533 21 151.6C20.0667 150.533 19.6 149.333 19.6 148V51C19.6 49.5333 20.0667 48.3333 21 47.4C22.0667 46.4667 23.2667 46 24.6 46H52.4C58.2667 46 63.2 46.8667 67.2 48.6C71.2 50.3333 74.4667 52.4 77 54.8C79.2667 57.0667 81.0667 59.9333 82.4 63.4C83.7333 66.7333 84.4 70 84.4 73.2C84.4 76.8 83.7333 80.2667 82.4 83.6C81.0667 86.8 79.2667 89.5333 77 91.8C76.6 92.2 76.1333 92.6667 75.6 93.2C75.2 93.6 74.6667 94 74 94.4C78.5333 96.2667 82.2667 98.6667 85.2 101.6C91.0667 107.467 94 114.467 94 122.6C94 126.2 93.3333 129.8 92 133.4C90.6667 136.867 88.6 140 85.8 142.8C82.8667 145.733 79 148.2 74.2 150.2C69.4 152.067 63.2 153 55.6 153H24.6ZM54.2 91C57.6667 90.7333 60.7333 90 63.4 88.8C66.2 87.4667 68.3333 86.0667 69.8 84.6C72.8667 81.8 74.4 78 74.4 73.2C74.4 68.8 72.8667 65.0667 69.8 62C68.0667 60.1333 65.7333 58.6667 62.8 57.6C60 56.5333 56.5333 56 52.4 56H29.6V91H54.2ZM29.6 101V143H55.6C61.4667 143 66.2 142.333 69.8 141C73.5333 139.667 76.4667 137.867 78.6 135.6C82.2 132 84 127.667 84 122.6C84 117.4 82 112.8 78 108.8C72.8 103.6 65.5333 101 56.2 101H29.6ZM158.064 153C145.264 153 134.931 149.667 127.064 143C119.331 136.333 115.464 126.933 115.464 114.8C115.464 106.667 117.197 99.6 120.664 93.6C124.131 87.6 128.731 82.9333 134.464 79.6C140.331 76.2667 146.797 74.6 153.864 74.6C160.931 74.6 166.864 76 171.664 78.8C176.464 81.6 180.064 85.0667 182.464 89.2C184.997 93.3333 186.264 97.4 186.264 101.4C186.264 106.2 184.731 110.333 181.664 113.8C178.731 117.267 173.131 119 164.864 119H125.664C126.731 127 130.197 133 136.064 137C142.064 141 149.397 143 158.064 143C161.397 143 164.397 142.733 167.064 142.2C169.864 141.667 171.997 141.133 173.464 140.6C174.931 140.067 175.864 139.733 176.264 139.6C176.797 139.467 177.197 139.4 177.464 139.4C178.797 139.4 179.931 139.933 180.864 141C181.931 141.933 182.464 143.067 182.464 144.4C182.464 146.667 181.397 148.2 179.264 149C176.464 150.067 173.197 151 169.464 151.8C165.731 152.6 161.931 153 158.064 153ZM153.864 84.6C146.797 84.6 140.664 86.8667 135.464 91.4C130.264 95.8 127.064 101.667 125.864 109H165.064C172.664 109 176.464 106.467 176.464 101.4C176.464 97.2667 174.397 93.4667 170.264 90C166.131 86.4 160.664 84.6 153.864 84.6Z" fill="#F3F8FF"/>
</svg>
